<?xml version="1.0" encoding="UTF-8" standalone="no"?>
<!DOCTYPE svg PUBLIC "-//W3C//DTD SVG 1.1//EN"
 "http://www.w3.org/Graphics/SVG/1.1/DTD/svg11.dtd">
<!-- Generated by graphviz version 2.43.0 (0)
 -->
<!-- Title: pipeline Pages: 1 -->
<svg width="915pt" height="1562pt"
 viewBox="0.00 0.00 915.00 1562.00" xmlns="http://www.w3.org/2000/svg" xmlns:xlink="http://www.w3.org/1999/xlink" xmlns:c2pa="http://c2pa.org/manifest"><metadata><c2pa:manifest>AAAWgmp1bWIAAAAeanVtZGMycGEAEQAQgAAAqgA4m3EDYzJwYQAAABZcanVtYgAAAEdqdW1kYzJtYQARABCAAACqADibcQN1cm46YzJwYToyMTIzZTg2OC0yMTc1LTQ0NTItODEwZS1kMmNmMzY0NmY3MjIAAAADl2p1bWIAAAApanVtZGMyYXMAEQAQgAAAqgA4m3EDYzJwYS5hc3NlcnRpb25zAAAAALxqdW1iAAAARGp1bWRjYm9yABEAEIAAAKoAOJtxE2MycGEuaW5ncmVkaWVudC52MwAAAAAYYzJzaMyaPhSrx98/4HvvD0ivINIAAABwY2JvcqNpZGM6Zm9ybWF0bWltYWdlL3N2Zyt4bWxqaW5zdGFuY2VJRHgseG1wOmlpZDozZTUzMDI1NC02ODk4LTQyMDItOTU5Mi03OTAxZmYwZTI5N2RscmVsYXRpb25zaGlwaHBhcmVudE9mAAAB4mp1bWIAAABBanVtZGNib3IAEQAQgAAAqgA4m3ETYzJwYS5hY3Rpb25zLnYyAAAAABhjMnNolofUuxUoF1apETAgB2MsTgAAAZljYm9yomdhY3Rpb25zgqJmYWN0aW9ua2MycGEub3BlbmVkanBhcmFtZXRlcnOha2luZ3JlZGllbnRzgaJjdXJseC1zZWxmI2p1bWJmPWMycGEuYXNzZXJ0aW9ucy9jMnBhLmluZ3JlZGllbnQudjNkaGFzaFgg7es4QHkH/kbeyk7EaaWcWNZGDYjWsNUuRSim3TfzDKOkZmFjdGlvbngdY29tLmFudGhyb3BpYy5jbGF1ZGUucHJvdmlkZWRqcGFyYW1ldGVyc6F4H2NvbS5hbnRocm9waWMub3JpZ2luLWNvbmZpZGVuY2VndW5rbm93bmtkZXNjcmlwdGlvbnhmQ2xhdWRlIHByb3ZpZGVkIHRoaXMgZmlsZSBhdCB0aGUgcmVxdWVzdCBvZiBhIHVzZXIgYW5kIG1heSBoYXZlIGNyZWF0ZWQgb3IgbW9kaWZpZWQgdGhlIGZpbGUgY29udGVudHMubXNvZnR3YXJlQWdlbnShZG5hbWVmQ2xhdWRlcmFsbEFjdGlvbnNJbmNsdWRlZPUAAADIanVtYgAAAEBqdW1kY2JvcgARABCAAACqADibcRNjMnBhLmhhc2guZGF0YQAAAAAYYzJzaDT6TX5TqGIfPnz8iBR+GKYAAACAY2JvcqVjYWxnZnNoYTI1NmNwYWRMAAAAAAAAAAAAAAAAZGhhc2hYIJFNGQ+fpimtLYbCw/4ccAbl7lIAHiH5gLZhjv0lAcofZG5hbWVuanVtYmYgbWFuaWZlc3RqZXhjbHVzaW9uc4GiZXN0YXJ0GQHEZmxlbmd0aBkeBAAAAj5qdW1iAAAAJ2p1bWRjMmNsABEAEIAAAKoAOJtxA2MycGEuY2xhaW0udjIAAAACD2Nib3KlY2FsZ2ZzaGEyNTZpc2lnbmF0dXJleE1zZWxmI2p1bWJmPS9jMnBhL3VybjpjMnBhOjIxMjNlODY4LTIxNzUtNDQ1Mi04MTBlLWQyY2YzNjQ2ZjcyMi9jMnBhLnNpZ25hdHVyZWppbnN0YW5jZUlEeCx4bXA6aWlkOjFhOGU1Nzg0LWJlMTgtNDVjMi1iZTA1LWVlOTBjOWM3ZGIyYnJjcmVhdGVkX2Fzc2VydGlvbnODomN1cmx4LXNlbGYjanVtYmY9YzJwYS5hc3NlcnRpb25zL2MycGEuaW5ncmVkaWVudC52M2RoYXNoWCDt6zhAeQf+Rt7KTsRppZxY1kYNiNaw1S5FKKbdN/MMo6JjdXJseCpzZWxmI2p1bWJmPWMycGEuYXNzZXJ0aW9ucy9jMnBhLmFjdGlvbnMudjJkaGFzaFgg4wvim5KAIkfJ5y1CyoH03DrLrJUPvoA1xrDjjlHDbHaiY3VybHgpc2VsZiNqdW1iZj1jMnBhLmFzc2VydGlvbnMvYzJwYS5oYXNoLmRhdGFkaGFzaFggWJsb1y4KhkrcTdUFI7tsgkPZhMXohQauXB574+f/x8V0Y2xhaW1fZ2VuZXJhdG9yX2luZm+jZG5hbWVvQW50aHJvcGljIEZpbGVzZ3ZlcnNpb25lMS4wLjBrc3BlY1ZlcnNpb25lMi40LjAAABA4anVtYgAAAChqdW1kYzJjcwARABCAAACqADibcQNjMnBhLnNpZ25hdHVyZQAAABAIY2JvctKEWQISogEmGCFZAgowggIGMIIBjaADAgECAhRA5aAK7sI50L64g/oGQgU9Z1UTADAKBggqhkjOPQQDAzBJMRcwFQYDVQQKEw5BbnRocm9waWMsIFBCQzEuMCwGA1UEAxMlQW50aHJvcGljIENvbnRlbnQgQ3JlZGVudGlhbHMgUm9vdCBDQTAeFw0yNjA4MDcxODQzNTZaFw0yODA4MDYxOTQzNTZaMEQxFzAVBgNVBAoTDkFudGhyb3BpYywgUEJDMSkwJwYDVQQDEyBBbnRocm9waWMgQ2xhdWRlIENvbnRlbnQgU2lnbmluZzBZMBMGByqGSM49AgEGCCqGSM49AwEHA0IABJh6CmvLUBgFFNU0vUKlOVtE6djd17L5SuwX0LemFisBM3dkd/3cyjxFA3Qo5S46fX0/ihY0VZ7mfb9KF703t5OjWDBWMA4GA1UdDwEB/wQEAwIHgDAVBgNVHSUEDjAMBgorBgEEAYPoXgIBMAwGA1UdEwEB/wQCMAAwHwYDVR0jBBgwFoAUzlHiBIFOZFsj+OPEz5o+nMHXXMIwCgYIKoZIzj0EAwMDZwAwZAIwMXMdFJ4BetLLVY7ORuE9noqbbAZOZn/aArXyTwFAZfKrPzxF2vPoJNf1+UCdg1XGAjBwX1zd9WGqYkqmL5SFqw1QySjr1zJfpJM9+1rdDwSPLMOPOjKuiXjoU/pUUeG9RwmhY3BhZFkNngAAAAAAAAAAAAAAAAAAAAAAAAAAAAAAAAAAAAAAAAAAAAAAAAAAAAAAAAAAAAAAAAAAAAAAAAAAAAAAAAAAAAAAAAAAAAAAAAAAAAAAAAAAAAAAAAAAAAAAAAAAAAAAAAAAAAAAAAAAAAAAAAAAAAAAAAAAAAAAAAAAAAAAAAAAAAAAAAAAAAAAAAAAAAAAAAAAAAAAAAAAAAAAAAAAAAAAAAAAAAAAAAAAAAAAAAAAAAAAAAAAAAAAAAAAAAAAAAAAAAAAAAAAAAAAAAAAAAAAAAAAAAAAAAAAAAAAAAAAAAAAAAAAAAAAAAAAAAAAAAAAAAAAAAAAAAAAAAAAAAAAAAAAAAAAAAAAAAAAAAAAAAAAAAAAAAAAAAAAAAAAAAAAAAAAAAAAAAAAAAAAAAAAAAAAAAAAAAAAAAAAAAAAAAAAAAAAAAAAAAAAAAAAAAAAAAAAAAAAAAAAAAAAAAAAAAAAAAAAAAAAAAAAAAAAAAAAAAAAAAAAAAAAAAAAAAAAAAAAAAAAAAAAAAAAAAAAAAAAAAAAAAAAAAAAAAAAAAAAAAAAAAAAAAAAAAAAAAAAAAAAAAAAAAAAAAAAAAAAAAAAAAAAAAAAAAAAAAAAAAAAAAAAAAAAAAAAAAAAAAAAAAAAAAAAAAAAAAAAAAAAAAAAAAAAAAAAAAAAAAAAAAAAAAAAAAAAAAAAAAAAAAAAAAAAAAAAAAAAAAAAAAAAAAAAAAAAAAAAAAAAAAAAAAAAAAAAAAAAAAAAAAAAAAAAAAAAAAAAAAAAAAAAAAAAAAAAAAAAAAAAAAAAAAAAAAAAAAAAAAAAAAAAAAAAAAAAAAAAAAAAAAAAAAAAAAAAAAAAAAAAAAAAAAAAAAAAAAAAAAAAAAAAAAAAAAAAAAAAAAAAAAAAAAAAAAAAAAAAAAAAAAAAAAAAAAAAAAAAAAAAAAAAAAAAAAAAAAAAAAAAAAAAAAAAAAAAAAAAAAAAAAAAAAAAAAAAAAAAAAAAAAAAAAAAAAAAAAAAAAAAAAAAAAAAAAAAAAAAAAAAAAAAAAAAAAAAAAAAAAAAAAAAAAAAAAAAAAAAAAAAAAAAAAAAAAAAAAAAAAAAAAAAAAAAAAAAAAAAAAAAAAAAAAAAAAAAAAAAAAAAAAAAAAAAAAAAAAAAAAAAAAAAAAAAAAAAAAAAAAAAAAAAAAAAAAAAAAAAAAAAAAAAAAAAAAAAAAAAAAAAAAAAAAAAAAAAAAAAAAAAAAAAAAAAAAAAAAAAAAAAAAAAAAAAAAAAAAAAAAAAAAAAAAAAAAAAAAAAAAAAAAAAAAAAAAAAAAAAAAAAAAAAAAAAAAAAAAAAAAAAAAAAAAAAAAAAAAAAAAAAAAAAAAAAAAAAAAAAAAAAAAAAAAAAAAAAAAAAAAAAAAAAAAAAAAAAAAAAAAAAAAAAAAAAAAAAAAAAAAAAAAAAAAAAAAAAAAAAAAAAAAAAAAAAAAAAAAAAAAAAAAAAAAAAAAAAAAAAAAAAAAAAAAAAAAAAAAAAAAAAAAAAAAAAAAAAAAAAAAAAAAAAAAAAAAAAAAAAAAAAAAAAAAAAAAAAAAAAAAAAAAAAAAAAAAAAAAAAAAAAAAAAAAAAAAAAAAAAAAAAAAAAAAAAAAAAAAAAAAAAAAAAAAAAAAAAAAAAAAAAAAAAAAAAAAAAAAAAAAAAAAAAAAAAAAAAAAAAAAAAAAAAAAAAAAAAAAAAAAAAAAAAAAAAAAAAAAAAAAAAAAAAAAAAAAAAAAAAAAAAAAAAAAAAAAAAAAAAAAAAAAAAAAAAAAAAAAAAAAAAAAAAAAAAAAAAAAAAAAAAAAAAAAAAAAAAAAAAAAAAAAAAAAAAAAAAAAAAAAAAAAAAAAAAAAAAAAAAAAAAAAAAAAAAAAAAAAAAAAAAAAAAAAAAAAAAAAAAAAAAAAAAAAAAAAAAAAAAAAAAAAAAAAAAAAAAAAAAAAAAAAAAAAAAAAAAAAAAAAAAAAAAAAAAAAAAAAAAAAAAAAAAAAAAAAAAAAAAAAAAAAAAAAAAAAAAAAAAAAAAAAAAAAAAAAAAAAAAAAAAAAAAAAAAAAAAAAAAAAAAAAAAAAAAAAAAAAAAAAAAAAAAAAAAAAAAAAAAAAAAAAAAAAAAAAAAAAAAAAAAAAAAAAAAAAAAAAAAAAAAAAAAAAAAAAAAAAAAAAAAAAAAAAAAAAAAAAAAAAAAAAAAAAAAAAAAAAAAAAAAAAAAAAAAAAAAAAAAAAAAAAAAAAAAAAAAAAAAAAAAAAAAAAAAAAAAAAAAAAAAAAAAAAAAAAAAAAAAAAAAAAAAAAAAAAAAAAAAAAAAAAAAAAAAAAAAAAAAAAAAAAAAAAAAAAAAAAAAAAAAAAAAAAAAAAAAAAAAAAAAAAAAAAAAAAAAAAAAAAAAAAAAAAAAAAAAAAAAAAAAAAAAAAAAAAAAAAAAAAAAAAAAAAAAAAAAAAAAAAAAAAAAAAAAAAAAAAAAAAAAAAAAAAAAAAAAAAAAAAAAAAAAAAAAAAAAAAAAAAAAAAAAAAAAAAAAAAAAAAAAAAAAAAAAAAAAAAAAAAAAAAAAAAAAAAAAAAAAAAAAAAAAAAAAAAAAAAAAAAAAAAAAAAAAAAAAAAAAAAAAAAAAAAAAAAAAAAAAAAAAAAAAAAAAAAAAAAAAAAAAAAAAAAAAAAAAAAAAAAAAAAAAAAAAAAAAAAAAAAAAAAAAAAAAAAAAAAAAAAAAAAAAAAAAAAAAAAAAAAAAAAAAAAAAAAAAAAAAAAAAAAAAAAAAAAAAAAAAAAAAAAAAAAAAAAAAAAAAAAAAAAAAAAAAAAAAAAAAAAAAAAAAAAAAAAAAAAAAAAAAAAAAAAAAAAAAAAAAAAAAAAAAAAAAAAAAAAAAAAAAAAAAAAAAAAAAAAAAAAAAAAAAAAAAAAAAAAAAAAAAAAAAAAAAAAAAAAAAAAAAAAAAAAAAAAAAAAAAAAAAAAAAAAAAAAAAAAAAAAAAAAAAAAAAAAAAAAAAAAAAAAAAAAAAAAAAAAAAAAAAAAAAAAAAAAAAAAAAAAAAAAAAAAAAAAAAAAAAAAAAAAAAAAAAAAAAAAAAAAAAAAAAAAAAAAAAAAAAAAAAAAAAAAAAAAAAAAAAAAAAAAAAAAAAAAAAAAAAAAAAAAAAAAAAAAAAAAAAAAAAAAAAAAAAAAAAAAAAAAAAAAAAAAAAAAAAAAAAAAAAAAAAAAAAAAAAAAAAAAAAAAAAAAAAAAAAAAAAAAAAAAAAAAAAAAAAAAAAAAAAAAAAAAAAAAAAAAAAAAAAAAAAAAAAAAAAAAAAAAAAAAAAAAAAAAAAAAAAAAAAAAAAAAAAAAAAAAAAAAAAAAAAAAAAAAAAAAAAAAAAAAAAAAAAAAAAAAAAAAAAAAAAAAAAAAAAAAAAAAAAAAAAAAAAAAAAAAAAAAAAAAAAAAAAAAAAAAAAAAAAAAAAAAAAAAAAAAAAAAAAAAAAAAAAAAAAAAAAAAAAAAAAAAAAAAAAAAAAAAAAAAAAAAAAAAAAAAAAAAAAAAAAAAAAAAAAAAAAAAAAAAAAAAAAAAAAAAAAAAAAAAAAAAAAAAAAAAAAAAAAAAAAAAAAAAAAAAAAAAAAAAAAAAAAAAAAAAAAAAAAAAAAAAAAAAAAAAAAAAAAAAAAAAAAAAAAAAAAAAAAAAAAAAAAAAAAAAAAAAAAAAAAAAAAAAAAAAAAAAAAAAAAAAAAAAAAAAAAAAAAAAAAAAAAAAAAAAAAAAAAAAAAAAAAAAAAAAAAAAAAAAAAAAAAAAAAAAAAAAAAAAAAAAAAAAAAAAAAAAAAAAAAAAAAAAAAAAAAAAAAAAAAAAAAAAAAAAAAAAAAAAAAAAAAAAAAAAAAAAAAAAAAAAAAAAAAAAAAAAAAAAAAAAAAAAAAAAAAAAAAAAAAAAAAAAAAAAAAAAAAAAAAAAAAAAAAAAAAAAAAAAAAAAAAAAAAAAAAAAAAAAAAAAAAAAAAAAAAAAAAAAAAAAAAAAAAAAAAAAAAAAAAAAAAAAAAAAAAAAAAAAAAAAAAAAAAAAAAAAAAAAAAAAAAAAAAAAAAAAAAAAAAAAAAAAAAAAAAAAAAAAAAAAAAAAAAAAAAAAAAAAAAAAAAAAAAAAAAAAAAAAAAAAAAAAAAAAAAAAAAAAAAAAAAAAAAAAAAAAAAAAAAAAAAAAAAAAAAAAAAAAAAAAAAAAAAAAAAAAAAAAAAAAAAAAAAAAAAAAAAAAAAAAAAAAAAAAAAAAAAAAAAAAAAAAAAAAAAAAAAAAAAAAAAAAAAAAAAAAAAAAAAAAAAAAAAAAAAAAAAAAAAAAAAAAAAAAAAAAAAAAAAAAAAAAAAAAAAAAAAAAAAAAAAAAAAAAAAAAAAAAAAAAAAAAAAAAAAAAAAAAAAAAAAAAAAAAAAAAAAAAAAAAAAAAAAAAAAAAAAAAAAAAAAAAAAAAAAAAAAAAAAAAAAAAAAAAAAAAAAAAAAAAAAAAAAAAAAAAAAAAAAAAAAAAAAAAAAAAAAAAAAAAAAAAAAAAAAAAAAAAAAAAAAAAAAAAAAAAAAAAAAAAAAAAAAAAAAAAAAAAAAAAAAAAAAAAAAAAAAAAAAAAAAAAAAAAAAAAAAAAAAAAAAAAAAAAAAAAAAAAAAAAAAAAAAAAAAAAAAAAAAAPZYQGPIkR3gLINGW/wBUoGvcbxGwkGzdqZI7Yh4dQ3KpawbbfW2zU83gLJYTEHHeqeDPVe2la7I+34EVE709b7wmhg=</c2pa:manifest></metadata>
<style>
  @keyframes pipelineFlow { to { stroke-dashoffset: -16; } }
  g.edge path { stroke-dasharray: 5 5; animation: pipelineFlow 0.8s linear infinite; }
</style>

<g id="graph0" class="graph" transform="scale(1 1) rotate(0) translate(4 1558)">
<title>pipeline</title>
<polygon fill="#020617" stroke="transparent" points="-4,4 -4,-1558 911,-1558 911,4 -4,4"/>
<g id="clust1" class="cluster">
<title>cluster_G1</title>
<path fill="#000000" stroke="#0a1a2f" stroke-width="1.6" d="M269,-1081C269,-1081 527,-1081 527,-1081 533,-1081 539,-1087 539,-1093 539,-1093 539,-1534 539,-1534 539,-1540 533,-1546 527,-1546 527,-1546 269,-1546 269,-1546 263,-1546 257,-1540 257,-1534 257,-1534 257,-1093 257,-1093 257,-1087 263,-1081 269,-1081"/>
<text text-anchor="middle" x="398" y="-1530.8" font-family="Inter,Segoe UI,Arial,sans-serif" font-size="14.00" fill="#ffffff">Geospatial Discovery</text>
</g>
<g id="clust2" class="cluster">
<title>cluster_G2</title>
<path fill="#000000" stroke="#0a1a2f" stroke-width="1.6" d="M243,-762C243,-762 553,-762 553,-762 559,-762 565,-768 565,-774 565,-774 565,-1061 565,-1061 565,-1067 559,-1073 553,-1073 553,-1073 243,-1073 243,-1073 237,-1073 231,-1067 231,-1061 231,-1061 231,-774 231,-774 231,-768 237,-762 243,-762"/>
<text text-anchor="middle" x="398" y="-1057.8" font-family="Inter,Segoe UI,Arial,sans-serif" font-size="14.00" fill="#ffffff">Visual Acquisition</text>
</g>
<g id="clust3" class="cluster">
<title>cluster_G3</title>
<path fill="#000000" stroke="#0a1a2f" stroke-width="1.6" d="M294,-351C294,-351 502,-351 502,-351 508,-351 514,-357 514,-363 514,-363 514,-742 514,-742 514,-748 508,-754 502,-754 502,-754 294,-754 294,-754 288,-754 282,-748 282,-742 282,-742 282,-363 282,-363 282,-357 288,-351 294,-351"/>
<text text-anchor="middle" x="398" y="-738.8" font-family="Inter,Segoe UI,Arial,sans-serif" font-size="14.00" fill="#ffffff">Dataset Engineering</text>
</g>
<g id="clust4" class="cluster">
<title>cluster_G4</title>
<path fill="#000000" stroke="#0a1a2f" stroke-width="1.6" d="M20,-8C20,-8 887,-8 887,-8 893,-8 899,-14 899,-20 899,-20 899,-331 899,-331 899,-337 893,-343 887,-343 887,-343 20,-343 20,-343 14,-343 8,-337 8,-331 8,-331 8,-20 8,-20 8,-14 14,-8 20,-8"/>
<text text-anchor="middle" x="453.5" y="-327.8" font-family="Inter,Segoe UI,Arial,sans-serif" font-size="14.00" fill="#ffffff">Modeling and Validation</text>
</g>
<!-- A -->
<g id="node1" class="node">
<title>A</title>
<path fill="#020817" stroke="#0a1a2f" stroke-width="1.6" d="M489.5,-1515C489.5,-1515 306.5,-1515 306.5,-1515 300.5,-1515 294.5,-1509 294.5,-1503 294.5,-1503 294.5,-1491 294.5,-1491 294.5,-1485 300.5,-1479 306.5,-1479 306.5,-1479 489.5,-1479 489.5,-1479 495.5,-1479 501.5,-1485 501.5,-1491 501.5,-1491 501.5,-1503 501.5,-1503 501.5,-1509 495.5,-1515 489.5,-1515"/>
<text text-anchor="middle" x="398" y="-1493.6" font-family="Inter,Segoe UI,Arial,sans-serif" font-size="13.00" fill="#ffffff">FlightMarket / aviation website</text>
</g>
<!-- B -->
<g id="node2" class="node">
<title>B</title>
<path fill="#020817" stroke="#0a1a2f" stroke-width="1.6" d="M486.5,-1443C486.5,-1443 309.5,-1443 309.5,-1443 303.5,-1443 297.5,-1437 297.5,-1431 297.5,-1431 297.5,-1409 297.5,-1409 297.5,-1403 303.5,-1397 309.5,-1397 309.5,-1397 486.5,-1397 486.5,-1397 492.5,-1397 498.5,-1403 498.5,-1409 498.5,-1409 498.5,-1431 498.5,-1431 498.5,-1437 492.5,-1443 486.5,-1443"/>
<text text-anchor="middle" x="398" y="-1423.6" font-family="Inter,Segoe UI,Arial,sans-serif" font-size="13.00" fill="#ffffff">Selenium automation</text>
<text text-anchor="middle" x="398" y="-1409.6" font-family="Inter,Segoe UI,Arial,sans-serif" font-size="13.00" fill="#ffffff">src/geospatial/helipad_bot.py</text>
</g>
<!-- A&#45;&gt;B -->
<g id="edge1" class="edge">
<title>A&#45;&gt;B</title>
<path fill="none" stroke="#14b8a6" stroke-width="2.2" d="M398,-1478.98C398,-1470.76 398,-1460.64 398,-1451.17"/>
<polygon fill="#14b8a6" stroke="#14b8a6" stroke-width="2.2" points="400.8,-1451.08 398,-1443.08 395.2,-1451.08 400.8,-1451.08"/>
</g>
<!-- C -->
<g id="node3" class="node">
<title>C</title>
<path fill="#020817" stroke="#0a1a2f" stroke-width="1.6" d="M482,-1361C482,-1361 314,-1361 314,-1361 308,-1361 302,-1355 302,-1349 302,-1349 302,-1337 302,-1337 302,-1331 308,-1325 314,-1325 314,-1325 482,-1325 482,-1325 488,-1325 494,-1331 494,-1337 494,-1337 494,-1349 494,-1349 494,-1355 488,-1361 482,-1361"/>
<text text-anchor="middle" x="398" y="-1339.6" font-family="Inter,Segoe UI,Arial,sans-serif" font-size="13.00" fill="#ffffff">Helipad records + metadata</text>
</g>
<!-- B&#45;&gt;C -->
<g id="edge2" class="edge">
<title>B&#45;&gt;C</title>
<path fill="none" stroke="#14b8a6" stroke-width="2.2" d="M398,-1396.9C398,-1388.26 398,-1378.29 398,-1369.36"/>
<polygon fill="#14b8a6" stroke="#14b8a6" stroke-width="2.2" points="400.8,-1369.18 398,-1361.18 395.2,-1369.18 400.8,-1369.18"/>
</g>
<!-- D -->
<g id="node4" class="node">
<title>D</title>
<path fill="#020817" stroke="#0a1a2f" stroke-width="1.6" d="M515,-1289C515,-1289 281,-1289 281,-1289 275,-1289 269,-1283 269,-1277 269,-1277 269,-1255 269,-1255 269,-1249 275,-1243 281,-1243 281,-1243 515,-1243 515,-1243 521,-1243 527,-1249 527,-1255 527,-1255 527,-1277 527,-1277 527,-1283 521,-1289 515,-1289"/>
<text text-anchor="middle" x="398" y="-1269.6" font-family="Inter,Segoe UI,Arial,sans-serif" font-size="13.00" fill="#ffffff">Coordinates CSV</text>
<text text-anchor="middle" x="398" y="-1255.6" font-family="Inter,Segoe UI,Arial,sans-serif" font-size="13.00" fill="#ffffff">src/geospatial/helipad_coordinates.csv</text>
</g>
<!-- C&#45;&gt;D -->
<g id="edge3" class="edge">
<title>C&#45;&gt;D</title>
<path fill="none" stroke="#14b8a6" stroke-width="2.2" d="M398,-1324.98C398,-1316.76 398,-1306.64 398,-1297.17"/>
<polygon fill="#14b8a6" stroke="#14b8a6" stroke-width="2.2" points="400.8,-1297.08 398,-1289.08 395.2,-1297.08 400.8,-1297.08"/>
</g>
<!-- E -->
<g id="node5" class="node">
<title>E</title>
<path fill="#020817" stroke="#0a1a2f" stroke-width="1.6" d="M518.5,-1207C518.5,-1207 277.5,-1207 277.5,-1207 271.5,-1207 265.5,-1201 265.5,-1195 265.5,-1195 265.5,-1173 265.5,-1173 265.5,-1167 271.5,-1161 277.5,-1161 277.5,-1161 518.5,-1161 518.5,-1161 524.5,-1161 530.5,-1167 530.5,-1173 530.5,-1173 530.5,-1195 530.5,-1195 530.5,-1201 524.5,-1207 518.5,-1207"/>
<text text-anchor="middle" x="398" y="-1187.6" font-family="Inter,Segoe UI,Arial,sans-serif" font-size="13.00" fill="#ffffff">Coordinate conversion</text>
<text text-anchor="middle" x="398" y="-1173.6" font-family="Inter,Segoe UI,Arial,sans-serif" font-size="13.00" fill="#ffffff">src/geospatial/transform_coordinates.py</text>
</g>
<!-- D&#45;&gt;E -->
<g id="edge4" class="edge">
<title>D&#45;&gt;E</title>
<path fill="none" stroke="#14b8a6" stroke-width="2.2" d="M398,-1242.72C398,-1234.22 398,-1224.39 398,-1215.27"/>
<polygon fill="#14b8a6" stroke="#14b8a6" stroke-width="2.2" points="400.8,-1215.16 398,-1207.16 395.2,-1215.16 400.8,-1215.16"/>
</g>
<!-- F -->
<g id="node6" class="node">
<title>F</title>
<path fill="#020817" stroke="#0a1a2f" stroke-width="1.6" d="M483.5,-1125C483.5,-1125 312.5,-1125 312.5,-1125 306.5,-1125 300.5,-1119 300.5,-1113 300.5,-1113 300.5,-1101 300.5,-1101 300.5,-1095 306.5,-1089 312.5,-1089 312.5,-1089 483.5,-1089 483.5,-1089 489.5,-1089 495.5,-1095 495.5,-1101 495.5,-1101 495.5,-1113 495.5,-1113 495.5,-1119 489.5,-1125 483.5,-1125"/>
<text text-anchor="middle" x="398" y="-1103.6" font-family="Inter,Segoe UI,Arial,sans-serif" font-size="13.00" fill="#ffffff">Geographic bounding boxes</text>
</g>
<!-- E&#45;&gt;F -->
<g id="edge5" class="edge">
<title>E&#45;&gt;F</title>
<path fill="none" stroke="#14b8a6" stroke-width="2.2" d="M398,-1160.9C398,-1152.26 398,-1142.29 398,-1133.36"/>
<polygon fill="#14b8a6" stroke="#14b8a6" stroke-width="2.2" points="400.8,-1133.18 398,-1125.18 395.2,-1133.18 400.8,-1133.18"/>
</g>
<!-- G -->
<g id="node7" class="node">
<title>G</title>
<path fill="#020817" stroke="#0a1a2f" stroke-width="1.6" d="M460,-1042C460,-1042 336,-1042 336,-1042 330,-1042 324,-1036 324,-1030 324,-1030 324,-1008 324,-1008 324,-1002 330,-996 336,-996 336,-996 460,-996 460,-996 466,-996 472,-1002 472,-1008 472,-1008 472,-1030 472,-1030 472,-1036 466,-1042 460,-1042"/>
<text text-anchor="middle" x="398" y="-1022.6" font-family="Inter,Segoe UI,Arial,sans-serif" font-size="13.00" fill="#ffffff">ESRI World Imagery</text>
<text text-anchor="middle" x="398" y="-1008.6" font-family="Inter,Segoe UI,Arial,sans-serif" font-size="13.00" fill="#ffffff">XYZ tile download</text>
</g>
<!-- F&#45;&gt;G -->
<g id="edge19" class="edge">
<title>F&#45;&gt;G</title>
<path fill="none" stroke="#14b8a6" stroke-width="2.2" d="M398,-1088.6C398,-1077.65 398,-1063.21 398,-1050.41"/>
<polygon fill="#14b8a6" stroke="#14b8a6" stroke-width="2.2" points="400.8,-1050.29 398,-1042.29 395.2,-1050.29 400.8,-1050.29"/>
</g>
<!-- H -->
<g id="node8" class="node">
<title>H</title>
<path fill="#020817" stroke="#0a1a2f" stroke-width="1.6" d="M545,-960C545,-960 251,-960 251,-960 245,-960 239,-954 239,-948 239,-948 239,-926 239,-926 239,-920 245,-914 251,-914 251,-914 545,-914 545,-914 551,-914 557,-920 557,-926 557,-926 557,-948 557,-948 557,-954 551,-960 545,-960"/>
<text text-anchor="middle" x="398" y="-940.6" font-family="Inter,Segoe UI,Arial,sans-serif" font-size="13.00" fill="#ffffff">Image mosaics by region</text>
<text text-anchor="middle" x="398" y="-926.6" font-family="Inter,Segoe UI,Arial,sans-serif" font-size="13.00" fill="#ffffff">src/geospatial/geospatial_image_collection.ipynb</text>
</g>
<!-- G&#45;&gt;H -->
<g id="edge6" class="edge">
<title>G&#45;&gt;H</title>
<path fill="none" stroke="#14b8a6" stroke-width="2.2" d="M398,-995.72C398,-987.22 398,-977.39 398,-968.27"/>
<polygon fill="#14b8a6" stroke="#14b8a6" stroke-width="2.2" points="400.8,-968.16 398,-960.16 395.2,-968.16 400.8,-968.16"/>
</g>
<!-- I -->
<g id="node9" class="node">
<title>I</title>
<path fill="#020817" stroke="#0a1a2f" stroke-width="1.6" d="M459,-878C459,-878 337,-878 337,-878 331,-878 325,-872 325,-866 325,-866 325,-854 325,-854 325,-848 331,-842 337,-842 337,-842 459,-842 459,-842 465,-842 471,-848 471,-854 471,-854 471,-866 471,-866 471,-872 465,-878 459,-878"/>
<text text-anchor="middle" x="398" y="-856.6" font-family="Inter,Segoe UI,Arial,sans-serif" font-size="13.00" fill="#ffffff">Manual visual triage</text>
</g>
<!-- H&#45;&gt;I -->
<g id="edge7" class="edge">
<title>H&#45;&gt;I</title>
<path fill="none" stroke="#14b8a6" stroke-width="2.2" d="M398,-913.9C398,-905.26 398,-895.29 398,-886.36"/>
<polygon fill="#14b8a6" stroke="#14b8a6" stroke-width="2.2" points="400.8,-886.18 398,-878.18 395.2,-886.18 400.8,-886.18"/>
</g>
<!-- J -->
<g id="node10" class="node">
<title>J</title>
<path fill="#020817" stroke="#0a1a2f" stroke-width="1.6" d="M489.5,-806C489.5,-806 306.5,-806 306.5,-806 300.5,-806 294.5,-800 294.5,-794 294.5,-794 294.5,-782 294.5,-782 294.5,-776 300.5,-770 306.5,-770 306.5,-770 489.5,-770 489.5,-770 495.5,-770 501.5,-776 501.5,-782 501.5,-782 501.5,-794 501.5,-794 501.5,-800 495.5,-806 489.5,-806"/>
<text text-anchor="middle" x="398" y="-784.6" font-family="Inter,Segoe UI,Arial,sans-serif" font-size="13.00" fill="#ffffff">Selected images with helipads</text>
</g>
<!-- I&#45;&gt;J -->
<g id="edge8" class="edge">
<title>I&#45;&gt;J</title>
<path fill="none" stroke="#14b8a6" stroke-width="2.2" d="M398,-841.7C398,-833.39 398,-823.28 398,-814.14"/>
<polygon fill="#14b8a6" stroke="#14b8a6" stroke-width="2.2" points="400.8,-814.1 398,-806.1 395.2,-814.1 400.8,-814.1"/>
</g>
<!-- K -->
<g id="node11" class="node">
<title>K</title>
<path fill="#020817" stroke="#0a1a2f" stroke-width="1.6" d="M449.5,-723C449.5,-723 346.5,-723 346.5,-723 340.5,-723 334.5,-717 334.5,-711 334.5,-711 334.5,-699 334.5,-699 334.5,-693 340.5,-687 346.5,-687 346.5,-687 449.5,-687 449.5,-687 455.5,-687 461.5,-693 461.5,-699 461.5,-699 461.5,-711 461.5,-711 461.5,-717 455.5,-723 449.5,-723"/>
<text text-anchor="middle" x="398" y="-701.6" font-family="Inter,Segoe UI,Arial,sans-serif" font-size="13.00" fill="#ffffff">Roboflow upload</text>
</g>
<!-- J&#45;&gt;K -->
<g id="edge20" class="edge">
<title>J&#45;&gt;K</title>
<path fill="none" stroke="#14b8a6" stroke-width="2.2" d="M398,-769.82C398,-758.65 398,-743.9 398,-731.38"/>
<polygon fill="#14b8a6" stroke="#14b8a6" stroke-width="2.2" points="400.8,-731.15 398,-723.15 395.2,-731.15 400.8,-731.15"/>
</g>
<!-- L -->
<g id="node12" class="node">
<title>L</title>
<path fill="#020817" stroke="#0a1a2f" stroke-width="1.6" d="M474,-651C474,-651 322,-651 322,-651 316,-651 310,-645 310,-639 310,-639 310,-617 310,-617 310,-611 316,-605 322,-605 322,-605 474,-605 474,-605 480,-605 486,-611 486,-617 486,-617 486,-639 486,-639 486,-645 480,-651 474,-651"/>
<text text-anchor="middle" x="398" y="-631.6" font-family="Inter,Segoe UI,Arial,sans-serif" font-size="13.00" fill="#ffffff">Bounding box annotation</text>
<text text-anchor="middle" x="398" y="-617.6" font-family="Inter,Segoe UI,Arial,sans-serif" font-size="13.00" fill="#ffffff">single class: helipad</text>
</g>
<!-- K&#45;&gt;L -->
<g id="edge9" class="edge">
<title>K&#45;&gt;L</title>
<path fill="none" stroke="#14b8a6" stroke-width="2.2" d="M398,-686.98C398,-678.76 398,-668.64 398,-659.17"/>
<polygon fill="#14b8a6" stroke="#14b8a6" stroke-width="2.2" points="400.8,-659.08 398,-651.08 395.2,-659.08 400.8,-659.08"/>
</g>
<!-- M -->
<g id="node13" class="node">
<title>M</title>
<path fill="#020817" stroke="#0a1a2f" stroke-width="1.6" d="M494,-569C494,-569 302,-569 302,-569 296,-569 290,-563 290,-557 290,-557 290,-535 290,-535 290,-529 296,-523 302,-523 302,-523 494,-523 494,-523 500,-523 506,-529 506,-535 506,-535 506,-557 506,-557 506,-563 500,-569 494,-569"/>
<text text-anchor="middle" x="398" y="-549.6" font-family="Inter,Segoe UI,Arial,sans-serif" font-size="13.00" fill="#ffffff">Preprocessing + augmentations</text>
<text text-anchor="middle" x="398" y="-535.6" font-family="Inter,Segoe UI,Arial,sans-serif" font-size="13.00" fill="#ffffff">resize 640x640</text>
</g>
<!-- L&#45;&gt;M -->
<g id="edge10" class="edge">
<title>L&#45;&gt;M</title>
<path fill="none" stroke="#14b8a6" stroke-width="2.2" d="M398,-604.72C398,-596.22 398,-586.39 398,-577.27"/>
<polygon fill="#14b8a6" stroke="#14b8a6" stroke-width="2.2" points="400.8,-577.16 398,-569.16 395.2,-577.16 400.8,-577.16"/>
</g>
<!-- N -->
<g id="node14" class="node">
<title>N</title>
<path fill="#020817" stroke="#0a1a2f" stroke-width="1.6" d="M448.5,-487C448.5,-487 347.5,-487 347.5,-487 341.5,-487 335.5,-481 335.5,-475 335.5,-475 335.5,-453 335.5,-453 335.5,-447 341.5,-441 347.5,-441 347.5,-441 448.5,-441 448.5,-441 454.5,-441 460.5,-447 460.5,-453 460.5,-453 460.5,-475 460.5,-475 460.5,-481 454.5,-487 448.5,-487"/>
<text text-anchor="middle" x="398" y="-467.6" font-family="Inter,Segoe UI,Arial,sans-serif" font-size="13.00" fill="#ffffff">Dataset split</text>
<text text-anchor="middle" x="398" y="-453.6" font-family="Inter,Segoe UI,Arial,sans-serif" font-size="13.00" fill="#ffffff">train / valid / test</text>
</g>
<!-- M&#45;&gt;N -->
<g id="edge11" class="edge">
<title>M&#45;&gt;N</title>
<path fill="none" stroke="#14b8a6" stroke-width="2.2" d="M398,-522.72C398,-514.22 398,-504.39 398,-495.27"/>
<polygon fill="#14b8a6" stroke="#14b8a6" stroke-width="2.2" points="400.8,-495.16 398,-487.16 395.2,-495.16 400.8,-495.16"/>
</g>
<!-- O -->
<g id="node15" class="node">
<title>O</title>
<path fill="#020817" stroke="#0a1a2f" stroke-width="1.6" d="M453.5,-405C453.5,-405 342.5,-405 342.5,-405 336.5,-405 330.5,-399 330.5,-393 330.5,-393 330.5,-371 330.5,-371 330.5,-365 336.5,-359 342.5,-359 342.5,-359 453.5,-359 453.5,-359 459.5,-359 465.5,-365 465.5,-371 465.5,-371 465.5,-393 465.5,-393 465.5,-399 459.5,-405 453.5,-405"/>
<text text-anchor="middle" x="398" y="-385.6" font-family="Inter,Segoe UI,Arial,sans-serif" font-size="13.00" fill="#ffffff">YOLO export</text>
<text text-anchor="middle" x="398" y="-371.6" font-family="Inter,Segoe UI,Arial,sans-serif" font-size="13.00" fill="#ffffff">data.yaml + labels</text>
</g>
<!-- N&#45;&gt;O -->
<g id="edge12" class="edge">
<title>N&#45;&gt;O</title>
<path fill="none" stroke="#14b8a6" stroke-width="2.2" d="M398,-440.72C398,-432.22 398,-422.39 398,-413.27"/>
<polygon fill="#14b8a6" stroke="#14b8a6" stroke-width="2.2" points="400.8,-413.16 398,-405.16 395.2,-413.16 400.8,-413.16"/>
</g>
<!-- P -->
<g id="node16" class="node">
<title>P</title>
<path fill="#020817" stroke="#0a1a2f" stroke-width="1.6" d="M489.5,-312C489.5,-312 306.5,-312 306.5,-312 300.5,-312 294.5,-306 294.5,-300 294.5,-300 294.5,-278 294.5,-278 294.5,-272 300.5,-266 306.5,-266 306.5,-266 489.5,-266 489.5,-266 495.5,-266 501.5,-272 501.5,-278 501.5,-278 501.5,-300 501.5,-300 501.5,-306 495.5,-312 489.5,-312"/>
<text text-anchor="middle" x="398" y="-292.6" font-family="Inter,Segoe UI,Arial,sans-serif" font-size="13.00" fill="#ffffff">Google Colab training</text>
<text text-anchor="middle" x="398" y="-278.6" font-family="Inter,Segoe UI,Arial,sans-serif" font-size="13.00" fill="#ffffff">Ultralytics YOLOv8 / YOLOv11</text>
</g>
<!-- O&#45;&gt;P -->
<g id="edge21" class="edge">
<title>O&#45;&gt;P</title>
<path fill="none" stroke="#14b8a6" stroke-width="2.2" d="M398,-358.97C398,-347.32 398,-332.84 398,-320.17"/>
<polygon fill="#14b8a6" stroke="#14b8a6" stroke-width="2.2" points="400.8,-320.14 398,-312.14 395.2,-320.14 400.8,-320.14"/>
</g>
<!-- Q -->
<g id="node17" class="node">
<title>Q</title>
<path fill="#020817" stroke="#0a1a2f" stroke-width="1.6" d="M478,-230C478,-230 318,-230 318,-230 312,-230 306,-224 306,-218 306,-218 306,-196 306,-196 306,-190 312,-184 318,-184 318,-184 478,-184 478,-184 484,-184 490,-190 490,-196 490,-196 490,-218 490,-218 490,-224 484,-230 478,-230"/>
<text text-anchor="middle" x="398" y="-210.6" font-family="Inter,Segoe UI,Arial,sans-serif" font-size="13.00" fill="#ffffff">Runs, weights and metrics</text>
<text text-anchor="middle" x="398" y="-196.6" font-family="Inter,Segoe UI,Arial,sans-serif" font-size="13.00" fill="#ffffff">runs/detect/.../best.pt</text>
</g>
<!-- P&#45;&gt;Q -->
<g id="edge13" class="edge">
<title>P&#45;&gt;Q</title>
<path fill="none" stroke="#14b8a6" stroke-width="2.2" d="M398,-265.72C398,-257.22 398,-247.39 398,-238.27"/>
<polygon fill="#14b8a6" stroke="#14b8a6" stroke-width="2.2" points="400.8,-238.16 398,-230.16 395.2,-238.16 400.8,-238.16"/>
</g>
<!-- R -->
<g id="node18" class="node">
<title>R</title>
<path fill="#020817" stroke="#0a1a2f" stroke-width="1.6" d="M169.5,-148C169.5,-148 28.5,-148 28.5,-148 22.5,-148 16.5,-142 16.5,-136 16.5,-136 16.5,-100 16.5,-100 16.5,-94 22.5,-88 28.5,-88 28.5,-88 169.5,-88 169.5,-88 175.5,-88 181.5,-94 181.5,-100 181.5,-100 181.5,-136 181.5,-136 181.5,-142 175.5,-148 169.5,-148"/>
<text text-anchor="middle" x="99" y="-128.6" font-family="Inter,Segoe UI,Arial,sans-serif" font-size="13.00" fill="#ffffff">Quantitative evaluation</text>
<text text-anchor="middle" x="99" y="-114.6" font-family="Inter,Segoe UI,Arial,sans-serif" font-size="13.00" fill="#ffffff">mAP, Precision, Recall,</text>
<text text-anchor="middle" x="99" y="-100.6" font-family="Inter,Segoe UI,Arial,sans-serif" font-size="13.00" fill="#ffffff">confusion matrix</text>
</g>
<!-- Q&#45;&gt;R -->
<g id="edge14" class="edge">
<title>Q&#45;&gt;R</title>
<path fill="none" stroke="#14b8a6" stroke-width="2.2" d="M316.72,-183.88C278.49,-173.3 232.32,-160.3 191,-148 190.52,-147.86 190.05,-147.72 189.57,-147.57"/>
<polygon fill="#14b8a6" stroke="#14b8a6" stroke-width="2.2" points="190.18,-144.83 181.71,-145.21 188.57,-150.2 190.18,-144.83"/>
</g>
<!-- S -->
<g id="node19" class="node">
<title>S</title>
<path fill="#020817" stroke="#0a1a2f" stroke-width="1.6" d="M332,-148C332,-148 212,-148 212,-148 206,-148 200,-142 200,-136 200,-136 200,-100 200,-100 200,-94 206,-88 212,-88 212,-88 332,-88 332,-88 338,-88 344,-94 344,-100 344,-100 344,-136 344,-136 344,-142 338,-148 332,-148"/>
<text text-anchor="middle" x="272" y="-128.6" font-family="Inter,Segoe UI,Arial,sans-serif" font-size="13.00" fill="#ffffff">Qualitative analysis</text>
<text text-anchor="middle" x="272" y="-114.6" font-family="Inter,Segoe UI,Arial,sans-serif" font-size="13.00" fill="#ffffff">hits, false positives,</text>
<text text-anchor="middle" x="272" y="-100.6" font-family="Inter,Segoe UI,Arial,sans-serif" font-size="13.00" fill="#ffffff">false negatives</text>
</g>
<!-- Q&#45;&gt;S -->
<g id="edge15" class="edge">
<title>Q&#45;&gt;S</title>
<path fill="none" stroke="#14b8a6" stroke-width="2.2" d="M365.88,-183.82C352.22,-174.39 335.99,-163.19 320.9,-152.76"/>
<polygon fill="#14b8a6" stroke="#14b8a6" stroke-width="2.2" points="322.23,-150.28 314.06,-148.04 319.05,-154.89 322.23,-150.28"/>
</g>
<!-- T -->
<g id="node20" class="node">
<title>T</title>
<path fill="#020817" stroke="#0a1a2f" stroke-width="1.6" d="M676.5,-148C676.5,-148 373.5,-148 373.5,-148 367.5,-148 361.5,-142 361.5,-136 361.5,-136 361.5,-100 361.5,-100 361.5,-94 367.5,-88 373.5,-88 373.5,-88 676.5,-88 676.5,-88 682.5,-88 688.5,-94 688.5,-100 688.5,-100 688.5,-136 688.5,-136 688.5,-142 682.5,-148 676.5,-148"/>
<text text-anchor="middle" x="525" y="-128.6" font-family="Inter,Segoe UI,Arial,sans-serif" font-size="13.00" fill="#ffffff">Field validation on unseen regions</text>
<text text-anchor="middle" x="525" y="-114.6" font-family="Inter,Segoe UI,Arial,sans-serif" font-size="13.00" fill="#ffffff">download_all_regions.py + auto_triage_regions.py</text>
<text text-anchor="middle" x="525" y="-100.6" font-family="Inter,Segoe UI,Arial,sans-serif" font-size="13.00" fill="#ffffff">(10 neighborhoods, 7,943 tiles)</text>
</g>
<!-- Q&#45;&gt;T -->
<g id="edge16" class="edge">
<title>Q&#45;&gt;T</title>
<path fill="none" stroke="#14b8a6" stroke-width="2.2" d="M430.38,-183.82C444.14,-174.39 460.5,-163.19 475.71,-152.76"/>
<polygon fill="#14b8a6" stroke="#14b8a6" stroke-width="2.2" points="477.59,-154.87 482.61,-148.04 474.42,-150.25 477.59,-154.87"/>
</g>
<!-- V -->
<g id="node22" class="node">
<title>V</title>
<path fill="#020817" stroke="#0a1a2f" stroke-width="1.6" d="M879,-141C879,-141 719,-141 719,-141 713,-141 707,-135 707,-129 707,-129 707,-107 707,-107 707,-101 713,-95 719,-95 719,-95 879,-95 879,-95 885,-95 891,-101 891,-107 891,-107 891,-129 891,-129 891,-135 885,-141 879,-141"/>
<text text-anchor="middle" x="799" y="-121.6" font-family="Inter,Segoe UI,Arial,sans-serif" font-size="13.00" fill="#ffffff">Interactive dashboard</text>
<text text-anchor="middle" x="799" y="-107.6" font-family="Inter,Segoe UI,Arial,sans-serif" font-size="13.00" fill="#ffffff">apps/streamlit_app/app.py</text>
</g>
<!-- Q&#45;&gt;V -->
<g id="edge18" class="edge">
<title>Q&#45;&gt;V</title>
<path fill="none" stroke="#14b8a6" stroke-width="2.2" d="M490.03,-190.39C549.62,-179.74 628.75,-164.6 698,-148 704.17,-146.52 710.54,-144.91 716.92,-143.22"/>
<polygon fill="#14b8a6" stroke="#14b8a6" stroke-width="2.2" points="718.01,-145.83 725.01,-141.06 716.56,-140.42 718.01,-145.83"/>
</g>
<!-- U -->
<g id="node21" class="node">
<title>U</title>
<path fill="#020817" stroke="#0a1a2f" stroke-width="1.6" d="M607,-52C607,-52 443,-52 443,-52 437,-52 431,-46 431,-40 431,-40 431,-28 431,-28 431,-22 437,-16 443,-16 443,-16 607,-16 607,-16 613,-16 619,-22 619,-28 619,-28 619,-40 619,-40 619,-46 613,-52 607,-52"/>
<text text-anchor="middle" x="525" y="-30.6" font-family="Inter,Segoe UI,Arial,sans-serif" font-size="13.00" fill="#ffffff">Generalization assessment</text>
</g>
<!-- T&#45;&gt;U -->
<g id="edge17" class="edge">
<title>T&#45;&gt;U</title>
<path fill="none" stroke="#14b8a6" stroke-width="2.2" d="M525,-87.86C525,-78.88 525,-69.08 525,-60.37"/>
<polygon fill="#14b8a6" stroke="#14b8a6" stroke-width="2.2" points="527.8,-60.11 525,-52.11 522.2,-60.11 527.8,-60.11"/>
</g>
</g>
</svg>
